<svg xmlns="http://www.w3.org/2000/svg" viewBox="0 0 640 420" role="img" aria-labelledby="title desc">
  <title id="title">Track Focus app artwork</title>
  <desc id="desc">Abstract focus timer interface with progress rings and task cards.</desc>
  <defs>
    <linearGradient id="bg" x1="0" y1="0" x2="1" y2="1">
      <stop offset="0" stop-color="#111827"/>
      <stop offset="0.52" stop-color="#0f766e"/>
      <stop offset="1" stop-color="#2563eb"/>
    </linearGradient>
    <linearGradient id="ring" x1="0" y1="0" x2="1" y2="1">
      <stop offset="0" stop-color="#38bdf8"/>
      <stop offset="1" stop-color="#a7f3d0"/>
    </linearGradient>
  </defs>
  <rect width="640" height="420" rx="40" fill="url(#bg)"/>
  <circle cx="505" cy="86" r="90" fill="#ffffff" opacity="0.08"/>
  <circle cx="112" cy="344" r="120" fill="#ffffff" opacity="0.07"/>
  <rect x="78" y="58" width="484" height="304" rx="34" fill="#020617" opacity="0.7"/>
  <rect x="112" y="91" width="176" height="238" rx="28" fill="#0f172a"/>
  <circle cx="200" cy="176" r="58" fill="none" stroke="#1e293b" stroke-width="18"/>
  <path d="M200 118a58 58 0 1 1-47.2 91.6" fill="none" stroke="url(#ring)" stroke-linecap="round" stroke-width="18"/>
  <text x="200" y="187" text-anchor="middle" fill="#e5e7eb" font-family="Arial, Helvetica, sans-serif" font-size="26" font-weight="700">45</text>
  <text x="200" y="262" text-anchor="middle" fill="#94a3b8" font-family="Arial, Helvetica, sans-serif" font-size="18">Focus min</text>
  <rect x="322" y="98" width="190" height="42" rx="14" fill="#ffffff" opacity="0.12"/>
  <rect x="322" y="162" width="156" height="42" rx="14" fill="#ffffff" opacity="0.12"/>
  <rect x="322" y="226" width="190" height="42" rx="14" fill="#ffffff" opacity="0.12"/>
  <rect x="322" y="290" width="124" height="18" rx="9" fill="#5eead4"/>
  <text x="320" y="392" fill="#f8fafc" font-family="Arial, Helvetica, sans-serif" font-size="34" font-weight="700" text-anchor="middle">Track Focus</text>
</svg>
